<svg xmlns="http://www.w3.org/2000/svg">
  <!-- Icon sprite. Referenced as <use href="icons.svg#name">, so every symbol
       carries its own presentation attributes: styles from an external sprite's
       <style> block are not reliably applied inside the use-element shadow tree. -->

  <symbol id="home" viewBox="0 0 24 24" fill="none" stroke="currentColor" stroke-width="1.8" stroke-linecap="round" stroke-linejoin="round"><path d="M3 11 12 3l9 8"/><path d="M5.5 9.5V20h13V9.5"/><path d="M10 20v-5h4v5"/></symbol>
  <symbol id="pencil" viewBox="0 0 24 24" fill="none" stroke="currentColor" stroke-width="1.8" stroke-linecap="round" stroke-linejoin="round"><path d="M4 20h4L20.5 7.5a2 2 0 0 0 0-2.8l-1.2-1.2a2 2 0 0 0-2.8 0L4 16z"/><path d="M15 5.5 18.5 9"/></symbol>
  <symbol id="plus" viewBox="0 0 24 24" fill="none" stroke="currentColor" stroke-width="1.8" stroke-linecap="round" stroke-linejoin="round"><path d="M12 5v14M5 12h14"/></symbol>
  <symbol id="check" viewBox="0 0 24 24" fill="none" stroke="currentColor" stroke-width="1.8" stroke-linecap="round" stroke-linejoin="round"><path d="M5 13l4 4L19 7"/></symbol>
  <symbol id="x" viewBox="0 0 24 24" fill="none" stroke="currentColor" stroke-width="1.8" stroke-linecap="round" stroke-linejoin="round"><path d="M6 6l12 12M18 6L6 18"/></symbol>
  <symbol id="trash" viewBox="0 0 24 24" fill="none" stroke="currentColor" stroke-width="1.8" stroke-linecap="round" stroke-linejoin="round"><path d="M4 7h16"/><path d="M9.5 7V4.5h5V7"/><path d="M6.5 7l1 13h9l1-13"/></symbol>

  <symbol id="bookmark" viewBox="0 0 24 24" fill="none" stroke="currentColor" stroke-width="1.8" stroke-linecap="round" stroke-linejoin="round"><path d="M6 3.5h12v17l-6-5-6 5z"/></symbol>
  <symbol id="bookmark-solid" viewBox="0 0 24 24" fill="currentColor" stroke="currentColor" stroke-width="1.8" stroke-linecap="round" stroke-linejoin="round"><path d="M6 3.5h12v17l-6-5-6 5z"/></symbol>
  <symbol id="heart" viewBox="0 0 24 24" fill="none" stroke="currentColor" stroke-width="1.8" stroke-linecap="round" stroke-linejoin="round"><path d="M12 20.5c-1.2-.9-7.5-5-7.5-10A4.2 4.2 0 0 1 12 7.6a4.2 4.2 0 0 1 7.5 2.9c0 5-6.3 9.1-7.5 10z"/></symbol>
  <symbol id="heart-solid" viewBox="0 0 24 24" fill="currentColor" stroke="currentColor" stroke-width="1.8" stroke-linecap="round" stroke-linejoin="round"><path d="M12 20.5c-1.2-.9-7.5-5-7.5-10A4.2 4.2 0 0 1 12 7.6a4.2 4.2 0 0 1 7.5 2.9c0 5-6.3 9.1-7.5 10z"/></symbol>
  <symbol id="comment" viewBox="0 0 24 24" fill="none" stroke="currentColor" stroke-width="1.8" stroke-linecap="round" stroke-linejoin="round"><path d="M4.5 5h15v11h-10l-5 4z"/></symbol>

  <symbol id="user" viewBox="0 0 24 24" fill="none" stroke="currentColor" stroke-width="1.8" stroke-linecap="round" stroke-linejoin="round"><circle cx="12" cy="8" r="4"/><path d="M4.5 20.5c0-3.6 3.4-5.5 7.5-5.5s7.5 1.9 7.5 5.5"/></symbol>
  <symbol id="users" viewBox="0 0 24 24" fill="none" stroke="currentColor" stroke-width="1.8" stroke-linecap="round" stroke-linejoin="round"><circle cx="9.5" cy="8" r="3.5"/><path d="M2.5 20.5c0-3.4 3.1-5.2 7-5.2s7 1.8 7 5.2"/><path d="M16.5 4.8a3.5 3.5 0 0 1 0 6.4"/><path d="M18 15.6c2.2.5 3.5 2 3.5 4.4"/></symbol>
  <symbol id="login" viewBox="0 0 24 24" fill="none" stroke="currentColor" stroke-width="1.8" stroke-linecap="round" stroke-linejoin="round"><path d="M10 16.5l4.5-4.5L10 7.5"/><path d="M14.5 12H3.5"/><path d="M13.5 4h5a2 2 0 0 1 2 2v12a2 2 0 0 1-2 2h-5"/></symbol>
  <symbol id="logout" viewBox="0 0 24 24" fill="none" stroke="currentColor" stroke-width="1.8" stroke-linecap="round" stroke-linejoin="round"><path d="M16 16.5l4.5-4.5L16 7.5"/><path d="M20.5 12H9.5"/><path d="M13.5 4h-8a2 2 0 0 0-2 2v12a2 2 0 0 0 2 2h8"/></symbol>
  <symbol id="settings" viewBox="0 0 24 24" fill="none" stroke="currentColor" stroke-width="1.8" stroke-linecap="round" stroke-linejoin="round"><path d="M4 7h10M18 7h2M4 17h2M10 17h10"/><circle cx="16" cy="7" r="2"/><circle cx="8" cy="17" r="2"/></symbol>

  <symbol id="tag" viewBox="0 0 24 24" fill="none" stroke="currentColor" stroke-width="1.8" stroke-linecap="round" stroke-linejoin="round"><path d="M20.2 13.3 13.3 20.2a2 2 0 0 1-2.8 0L3.5 13V3.5H13l7.2 7a2 2 0 0 1 0 2.8z"/><circle cx="8" cy="8" r="1.4"/></symbol>
  <symbol id="search" viewBox="0 0 24 24" fill="none" stroke="currentColor" stroke-width="1.8" stroke-linecap="round" stroke-linejoin="round"><circle cx="10.5" cy="10.5" r="6.5"/><path d="M15.5 15.5 21 21"/></symbol>
  <symbol id="rss" viewBox="0 0 24 24" fill="none" stroke="currentColor" stroke-width="1.8" stroke-linecap="round" stroke-linejoin="round"><path d="M5 10.5A8.5 8.5 0 0 1 13.5 19"/><path d="M5 5a14 14 0 0 1 14 14"/><circle cx="5.5" cy="18.5" r="1.6" fill="currentColor"/></symbol>
  <symbol id="clock" viewBox="0 0 24 24" fill="none" stroke="currentColor" stroke-width="1.8" stroke-linecap="round" stroke-linejoin="round"><circle cx="12" cy="12" r="8.5"/><path d="M12 7.5V12l3.5 2"/></symbol>
  <symbol id="chevron-right" viewBox="0 0 24 24" fill="none" stroke="currentColor" stroke-width="1.8" stroke-linecap="round" stroke-linejoin="round"><path d="M9.5 5.5l6.5 6.5-6.5 6.5"/></symbol>
  <symbol id="chevron-down" viewBox="0 0 24 24" fill="none" stroke="currentColor" stroke-width="1.8" stroke-linecap="round" stroke-linejoin="round"><path d="M5.5 9.5 12 16l6.5-6.5"/></symbol>
  <symbol id="sun" viewBox="0 0 24 24" fill="none" stroke="currentColor" stroke-width="1.8" stroke-linecap="round" stroke-linejoin="round"><circle cx="12" cy="12" r="4.2"/><path d="M12 2.5v2.2M12 19.3v2.2M2.5 12h2.2M19.3 12h2.2M5.3 5.3l1.6 1.6M17.1 17.1l1.6 1.6M18.7 5.3l-1.6 1.6M6.9 17.1l-1.6 1.6"/></symbol>
  <symbol id="moon" viewBox="0 0 24 24" fill="none" stroke="currentColor" stroke-width="1.8" stroke-linecap="round" stroke-linejoin="round"><path d="M20 14.5A8.5 8.5 0 0 1 9.5 4a8.5 8.5 0 1 0 10.5 10.5z"/></symbol>
  <symbol id="contrast" viewBox="0 0 24 24" fill="none" stroke="currentColor" stroke-width="1.8" stroke-linecap="round" stroke-linejoin="round"><circle cx="12" cy="12" r="8.5"/><path d="M12 3.5a8.5 8.5 0 0 1 0 17z" fill="currentColor" stroke="none"/></symbol>

  <symbol id="draft" viewBox="0 0 24 24" fill="none" stroke="currentColor" stroke-width="1.8" stroke-linecap="round" stroke-linejoin="round"><path d="M14 3.5H6.5a2 2 0 0 0-2 2v13a2 2 0 0 0 2 2h11a2 2 0 0 0 2-2V9z"/><path d="M14 3.5V9h5.5"/><path d="M8.5 13.5h7M8.5 17h4"/></symbol>
</svg>
